PathFileType	4	(X/Y/Z)	s05c0403.trc
DataRate	CameraRate	NumFrames	NumMarkers	Units	OrigDataRate	OrigDataStartFrame	OrigNumFrames
200	200	6	49	mm	200	1000	2000
Frame#	Time	racr			lacr			c7			jug			rlel			rdr			llel			ldr			s2			lic			ric			lasi			rasi			rpsi			lpsi			rgt			lgt			rth1			rth2			rth3			rth4			rlfc			rsh1			rsh2			rsh3			rsh4			rlmal			rmmal			rcal			rtoe			rmt5			lth1			lth2			lth4			lth3			llfc			lmfc			lsh1			lsh2			lsh3			lsh4			llmal			lmmal			lcal			ltoe			lmt5			SBIKE			LBIKE			RBIKE			
		X1	Y1	Z1	X2	Y2	Z2	X3	Y3	Z3	X4	Y4	Z4	X5	Y5	Z5	X6	Y6	Z6	X7	Y7	Z7	X8	Y8	Z8	X9	Y9	Z9	X10	Y10	Z10	X11	Y11	Z11	X12	Y12	Z12	X13	Y13	Z13	X14	Y14	Z14	X15	Y15	Z15	X16	Y16	Z16	X17	Y17	Z17	X18	Y18	Z18	X19	Y19	Z19	X20	Y20	Z20	X21	Y21	Z21	X22	Y22	Z22	X23	Y23	Z23	X24	Y24	Z24	X25	Y25	Z25	X26	Y26	Z26	X27	Y27	Z27	X28	Y28	Z28	X29	Y29	Z29	X30	Y30	Z30	X31	Y31	Z31	X32	Y32	Z32	X33	Y33	Z33	X34	Y34	Z34	X35	Y35	Z35	X36	Y36	Z36	X37	Y37	Z37	X38	Y38	Z38	X39	Y39	Z39	X40	Y40	Z40	X41	Y41	Z41	X42	Y42	Z42	X43	Y43	Z43	X44	Y44	Z44	X45	Y45	Z45	X46	Y46	Z46	X47	Y47	Z47	X48	Y48	Z48	X49	Y49	Z49	
1000	5.0000	842.859808	1221.266285	-148.338791	817.199458	1284.519274	-450.372582	835.312223	1337.181830	-294.710604	767.839295	1182.837649	-311.330471	634.845371	1148.835330	62.568591	686.390932	957.946277	-41.410978	572.529862	1165.751896	-598.494656	680.523210	955.178759	-524.119811	233.068000	1244.327735	-286.849269	379.113704	1243.318126	-423.976348	379.571253	1206.419843	-144.497656	405.244978	1174.518975	-395.248179	401.305136	1141.189199	-180.792930	278.794709	1273.672473	-236.604493	282.759010	1287.494590	-323.034255	281.789383	1088.711041	-135.366496	305.871771	1153.309749	-466.464966	310.968322	974.108574	-116.708194	343.198175	891.218097	-116.389218	329.153109	804.524358	-123.815257	379.376949	895.301046	-123.955378	363.917996	660.951921	-145.708825	298.273789	575.472889	-112.111183	288.915586	487.522220	-121.826254	241.330944	416.323205	-122.650992	318.291500	479.918440	-146.625628	201.614730	288.174803	-127.338092	221.236950	308.436105	-206.191293	127.540095	275.579858	-172.877795	401.612155	160.239411	-155.163180	296.206144	174.551556	-94.013719	396.902391	1033.981553	-474.885249	468.777127	989.453522	-460.548498	492.372601	1011.714888	-441.441505	510.292461	909.248595	-457.075071	571.192448	780.378384	-417.042469	539.004730	775.627273	-311.158899	459.144472	735.033219	-448.624947	389.729643	682.553149	-442.074935	302.068277	669.775354	-449.779689	401.077668	655.415180	-416.584896	191.352028	614.607177	-453.613621	227.543967	613.615249	-375.453131	131.468584	657.291146	-414.786788	210.839812	374.305404	-393.467013	153.962017	461.677416	-463.842791	-172.153916	899.035475	-275.906317	-53.185307	79.378793	-474.693252	-53.255584	79.226560	-77.093695	
1001	5.0050	842.620714	1223.527831	-151.053493	817.094428	1284.158273	-453.515366	835.015984	1338.003575	-298.116100	767.268978	1183.636205	-313.809303	636.390305	1149.850086	60.344337	687.325578	957.921599	-42.450960	570.725663	1165.053666	-598.903161	680.230722	955.562270	-523.834946	232.980243	1242.831840	-282.611503	376.885231	1244.890615	-422.174204	382.066326	1203.849693	-142.846611	404.011059	1175.962704	-394.662881	403.529743	1139.131402	-179.803018	278.946671	1271.425256	-233.369308	281.835334	1286.988041	-319.072175	283.674354	1086.087211	-134.288201	304.334503	1155.130349	-464.755168	309.860718	972.538436	-115.587567	339.887272	888.691351	-115.259195	323.237208	802.266123	-122.732577	376.315008	892.204497	-123.155099	354.186777	658.039416	-145.101744	288.884597	572.377190	-111.321052	279.983342	484.345943	-121.098019	232.788801	412.956253	-122.049579	309.430175	476.890987	-145.954266	194.142849	284.352212	-127.237302	213.313696	305.049141	-205.655051	120.146092	273.196645	-172.480749	392.101486	152.884611	-155.426592	287.297139	169.282475	-93.908352	397.560913	1037.864196	-474.489249	470.611815	994.958222	-460.519232	492.870757	1017.483186	-441.891009	514.418270	915.605009	-456.546186	578.906294	788.297476	-417.196565	547.114133	782.564054	-311.733108	467.508204	742.650012	-448.568691	398.222311	689.854917	-442.215530	310.615880	676.883223	-449.519710	409.775018	662.515374	-417.040329	199.562985	620.467950	-452.965722	235.793436	619.617524	-374.998381	139.319398	662.557142	-414.415887	221.034819	380.211954	-393.550279	163.488670	467.254634	-463.771445	-172.082966	898.943722	-276.141757	-53.193010	79.388875	-474.691753	-53.264305	79.219226	-77.116386	
1002	5.0100	842.319633	1225.661188	-153.876625	817.061556	1283.487446	-456.668773	834.701258	1338.635355	-301.474723	766.600627	1184.231101	-316.194350	637.901601	1150.629897	58.211067	688.203135	957.730013	-43.415957	568.776586	1164.289593	-599.247269	679.969834	956.009955	-523.343167	232.903042	1241.397969	-278.362980	374.535385	1246.701249	-420.402377	384.753678	1201.064125	-141.660683	402.689393	1177.367718	-394.010804	405.711816	1137.164041	-179.097312	279.691455	1269.572740	-229.252815	281.100193	1286.745648	-315.217660	285.550928	1083.634488	-133.251826	302.552233	1156.770010	-462.599348	308.678054	971.455939	-114.742318	336.465146	886.778156	-114.400094	317.703560	801.023323	-120.777726	372.933327	889.535753	-122.583264	344.790449	655.754648	-144.120083	279.885720	569.937288	-110.225879	271.353121	481.951468	-120.045369	224.389696	410.301998	-121.127222	300.893809	474.620728	-144.832612	186.581123	281.552527	-126.601280	205.951095	301.865958	-204.810584	112.706482	271.521878	-171.861059	382.607030	146.550366	-155.251188	278.125150	164.572807	-93.639912	397.903771	1041.565289	-473.910508	472.051474	1000.448265	-460.505266	494.710378	1023.588479	-441.227453	517.733849	922.351935	-457.444993	585.940935	796.512601	-418.202696	555.021080	789.536962	-312.356497	475.484930	750.340607	-448.755393	406.511192	697.192602	-442.363605	318.927041	683.828360	-449.285139	418.399390	669.519419	-417.653306	207.687789	625.801031	-452.365077	243.978703	625.130737	-374.635233	146.880026	667.159073	-413.933080	231.531382	385.591455	-393.463756	173.170519	472.297480	-463.634967	-172.180937	899.054559	-275.698292	-53.200725	79.411837	-474.677930	-53.269225	79.228550	-77.084607	
1003	5.0150	841.590788	1227.718433	-156.782697	817.083480	1282.549418	-459.743381	834.327939	1339.045607	-304.791899	766.040714	1184.693043	-318.688293	639.256950	1151.300658	56.133015	689.016923	957.488435	-44.191192	566.689632	1163.395261	-599.679865	679.698074	956.571745	-522.814860	232.914695	1240.160977	-274.145326	372.250773	1248.272573	-418.585987	387.427371	1198.750575	-140.369731	401.286445	1178.859384	-393.311418	407.724865	1135.484019	-178.938745	280.440939	1267.926901	-225.310871	280.138570	1286.597033	-311.370726	287.404804	1081.620617	-132.214644	300.703117	1158.427931	-460.486571	307.544780	970.946890	-113.724688	333.326548	885.633762	-113.160556	312.609174	800.172878	-119.016316	369.607840	887.260120	-122.002965	335.820558	654.133165	-142.766676	271.337199	568.178384	-108.884609	262.950961	480.160559	-118.854647	216.212651	408.501381	-119.924563	292.581010	472.964297	-143.530758	178.941966	279.537278	-125.698565	198.356541	299.853733	-203.658989	105.202256	270.815268	-171.005877	372.829991	140.804609	-155.157279	268.739282	160.434237	-93.380745	397.893401	1045.220718	-473.410585	473.138611	1005.805072	-460.335049	495.206686	1029.495393	-440.998919	520.729277	928.745460	-457.788590	592.307677	805.049169	-420.040017	562.989880	796.794641	-312.718148	483.024453	758.015382	-448.982026	414.464928	704.362665	-442.591178	326.939213	690.448621	-448.956709	426.791569	676.484736	-418.429635	215.687175	630.631641	-451.786305	252.093238	630.147971	-374.399515	154.361210	671.143260	-413.470255	242.452731	390.811360	-393.595760	183.101950	476.758241	-463.563757	-172.198466	899.078020	-275.754910	-53.194490	79.464517	-474.632960	-53.260165	79.227801	-77.054908	
1004	5.0200	841.070799	1229.340184	-159.411603	817.226009	1281.297991	-462.753167	833.855777	1339.162371	-308.053161	764.923111	1184.907297	-320.773209	640.475527	1151.835802	54.298968	689.594725	957.145766	-44.782492	564.525455	1162.484466	-600.062420	679.455812	957.280960	-522.226005	233.005237	1239.225664	-270.050982	369.937452	1249.943011	-416.662941	390.037580	1196.787476	-139.313888	399.783333	1180.271697	-392.622390	409.613113	1134.026582	-178.893154	281.139506	1266.682844	-221.277277	279.293554	1286.590979	-307.661614	289.245298	1080.105393	-131.071121	298.838492	1160.101453	-458.375621	306.600824	971.152506	-112.623833	330.531946	885.218380	-111.691263	307.833916	800.269544	-116.882028	366.680011	886.055475	-120.925064	327.308011	653.036094	-141.154954	263.112162	567.172689	-107.291901	255.150673	479.182266	-116.920905	208.244959	407.340113	-118.353400	284.247252	471.571795	-142.137644	170.997541	278.495935	-123.916053	190.880014	298.543226	-202.327323	97.812486	270.905807	-169.804657	362.810068	135.491584	-155.141907	259.266649	156.940077	-92.991039	397.555936	1048.810962	-472.930099	473.756833	1011.156871	-460.121146	495.411417	1035.267790	-440.711483	523.171717	935.555412	-458.387039	598.524815	813.304587	-421.323399	570.089797	803.859223	-313.785317	490.014882	765.706294	-449.401800	422.051278	711.375200	-443.013493	334.551354	696.773482	-448.710446	434.879900	683.145311	-419.434585	223.617645	634.984157	-451.207991	259.688508	634.447430	-374.183373	161.640532	674.454534	-413.090450	253.608576	395.138183	-393.485237	193.185878	480.603256	-463.511449	-172.286698	899.036329	-275.404216	-53.190350	79.522214	-474.605195	-53.267665	79.253358	-77.014197	
1005	5.0250	840.936555	1229.798321	-161.575617	817.494572	1279.705581	-465.727294	833.412978	1339.027944	-311.272997	762.489115	1185.680544	-321.626977	641.635309	1152.113842	52.511778	690.005083	956.537531	-45.091266	562.267010	1161.464742	-600.438538	679.203113	958.004384	-521.628441	233.527195	1238.700884	-267.008764	367.513488	1251.697748	-414.958566	392.652182	1195.126014	-138.530883	398.181633	1181.787296	-391.912704	411.518410	1132.781718	-178.794943	282.159317	1265.789236	-217.985885	278.365343	1286.511442	-303.864472	291.040769	1079.191692	-129.872141	296.883946	1161.842008	-456.195172	305.915156	971.930679	-111.597123	328.079550	885.601042	-110.089582	303.618049	800.973478	-114.331113	363.908015	885.365620	-120.118680	319.394500	652.600972	-139.439034	255.429480	566.901208	-105.604834	247.515883	478.857158	-115.173459	200.597700	406.985379	-116.568899	276.530455	471.313397	-140.448864	163.650420	277.915854	-122.543875	183.560338	297.918973	-200.751465	90.419751	271.768774	-168.396492	352.561860	130.691846	-155.415734	249.731185	154.044694	-92.647142	396.680362	1052.320876	-472.577027	474.065587	1016.395262	-459.892953	495.299705	1040.858387	-440.553787	525.165884	941.657561	-458.739922	604.289633	821.507426	-422.696640	577.025204	811.139821	-314.705154	496.532701	773.131672	-450.092177	429.269260	718.050768	-443.552209	341.836331	702.641842	-448.421785	442.604543	689.652895	-420.739940	231.430119	638.662479	-450.688141	267.943236	638.474838	-373.871046	168.953664	676.982039	-412.692407	264.988833	398.614450	-392.699583	203.577119	483.849274	-463.441936	-172.708074	898.160986	-277.635257	-53.187292	79.573088	-474.586817	-53.256841	79.243270	-77.011289	
